<svg width="24" height="24" viewBox="0 0 24 24" fill="none" xmlns="http://www.w3.org/2000/svg">
<path fill-rule="evenodd" clip-rule="evenodd" d="M12.0002 2.25C12.1991 2.25 12.3898 2.32902 12.5305 2.46967C12.6711 2.61032 12.7502 2.80109 12.7502 3V19.19L18.9702 12.97C19.0388 12.8963 19.1216 12.8372 19.2136 12.7962C19.3056 12.7552 19.4049 12.7332 19.5056 12.7314C19.6063 12.7296 19.7064 12.7482 19.7998 12.7859C19.8931 12.8236 19.978 12.8797 20.0492 12.951C20.1204 13.0222 20.1766 13.107 20.2143 13.2004C20.252 13.2938 20.2705 13.3938 20.2687 13.4945C20.267 13.5952 20.2449 13.6945 20.2039 13.7865C20.1629 13.8785 20.1038 13.9613 20.0302 14.03L12.5302 21.53C12.3895 21.6705 12.1989 21.7493 12.0002 21.7493C11.8014 21.7493 11.6108 21.6705 11.4702 21.53L3.97015 14.03C3.89647 13.9613 3.83736 13.8785 3.79637 13.7865C3.75538 13.6945 3.73334 13.5952 3.73156 13.4945C3.72979 13.3938 3.74831 13.2938 3.78603 13.2004C3.82375 13.107 3.8799 13.0222 3.95112 12.951C4.02233 12.8797 4.10717 12.8236 4.20056 12.7859C4.29394 12.7482 4.39397 12.7296 4.49468 12.7314C4.59538 12.7332 4.69469 12.7552 4.78669 12.7962C4.87869 12.8372 4.96149 12.8963 5.03015 12.97L11.2502 19.19V3C11.2502 2.80109 11.3292 2.61032 11.4698 2.46967C11.6105 2.32902 11.8012 2.25 12.0002 2.25Z" fill="black"/>
</svg>
