<svg width="80" height="80" viewBox="0 0 80 80" fill="none" xmlns="http://www.w3.org/2000/svg">
<path d="M42.3072 36.924V16.0265C42.3072 15.2526 42.5625 14.6104 43.073 14.0998C43.5841 13.5893 44.2263 13.334 44.9997 13.334H63.9738C64.7477 13.334 65.3899 13.5893 65.9005 14.0998C66.4111 14.6104 66.6663 15.2526 66.6663 16.0265V27.8215C66.6663 28.5948 66.4111 29.2368 65.9005 29.7473C65.3899 30.2579 64.7477 30.5132 63.9738 30.5132H48.718L42.3072 36.924ZM63.1022 66.6673C57.4827 66.6673 51.7222 65.2604 45.8205 62.4465C39.9188 59.632 34.4252 55.682 29.3397 50.5965C24.2969 45.5115 20.3683 40.0287 17.5538 34.1482C14.74 28.2676 13.333 22.5176 13.333 16.8982C13.333 15.8982 13.6663 15.054 14.333 14.3657C14.9997 13.6779 15.833 13.334 16.833 13.334H25.0763C25.9825 13.334 26.773 13.6193 27.448 14.1898C28.1236 14.7604 28.5811 15.4923 28.8205 16.3857L30.4738 24.334C30.6277 25.2657 30.6 26.0798 30.3905 26.7765C30.1811 27.4731 29.8113 28.0437 29.2813 28.4881L21.968 35.3081C23.3352 37.7909 24.8469 40.0976 26.503 42.2282C28.1591 44.3587 29.9252 46.3768 31.8013 48.2823C33.7369 50.2184 35.8202 52.0187 38.0513 53.6831C40.2819 55.3476 42.7305 56.9193 45.3972 58.3981L52.5255 51.1415C53.0683 50.5559 53.6783 50.1704 54.3555 49.9848C55.0327 49.7987 55.7816 49.7612 56.6022 49.8723L63.6147 51.3081C64.5208 51.5304 65.2561 51.9868 65.8205 52.6773C66.3844 53.3673 66.6663 54.159 66.6663 55.0523V63.1673C66.6663 64.1673 66.3224 65.0006 65.6347 65.6673C64.9463 66.334 64.1022 66.6673 63.1022 66.6673Z" fill="#777777"/>
</svg>
