<svg width="80" height="80" viewBox="0 0 80 80" fill="none" xmlns="http://www.w3.org/2000/svg">
<path d="M24.1021 54.1025C23.3754 54.1025 22.7665 53.8569 22.2754 53.3658C21.7837 52.8742 21.5379 52.265 21.5379 51.5383V48.205H60.7046L62.8204 50.3208V20H66.1537C66.8799 20 67.4888 20.2458 67.9804 20.7375C68.4721 21.2286 68.7179 21.8375 68.7179 22.5642V64.3592L58.4612 54.1025H24.1021ZM11.2812 51.795V12.5642C11.2812 11.8375 11.5271 11.2286 12.0187 10.7375C12.5104 10.2458 13.1193 10 13.8454 10H53.5896C54.3157 10 54.9246 10.2458 55.4163 10.7375C55.9079 11.2286 56.1537 11.8375 56.1537 12.5642V38.9742C56.1537 39.7008 55.9079 40.31 55.4163 40.8017C54.9246 41.2928 54.3157 41.5383 53.5896 41.5383H21.5379L11.2812 51.795Z" fill="#777777"/>
</svg>
