<svg width="80" height="80" viewBox="0 0 80 80" fill="none" xmlns="http://www.w3.org/2000/svg">
<path d="M25.385 73.3327C23.9039 73.3327 22.6361 72.8055 21.5817 71.751C20.5272 70.6966 20 69.4288 20 67.9477V12.051C20 10.5699 20.5272 9.30213 21.5817 8.24768C22.6361 7.19324 23.9039 6.66602 25.385 6.66602H54.615C56.0961 6.66602 57.3639 7.19324 58.4183 8.24768C59.4728 9.30213 60 10.5699 60 12.051V67.9477C60 69.4288 59.4728 70.6966 58.4183 71.751C57.3639 72.8055 56.0961 73.3327 54.615 73.3327H25.385ZM40 66.666C43.4008 66.666 48.7083 66.666 48.7083 66.666H56.6667V18.3327H23.3333V66.666H31.2917C31.2917 66.666 36.5992 66.666 40 66.666Z" fill="#777777"/>
<path d="M29.8932 48H25.5807L31.3464 31.0312H36.6432L42.3854 48H38.0964L36.9479 44.3672H31.0417L29.8932 48ZM32.0026 41.3203H35.987L34.0651 35.2266H33.9245L32.0026 41.3203ZM43.6042 34.2891V31.0312H53.5417V34.2891H50.5651V44.7422H53.5417V48H43.6042V44.7422H46.5807V34.2891H43.6042Z" fill="#777777"/>
</svg>
