<svg width="80" height="80" viewBox="0 0 80 80" fill="none" xmlns="http://www.w3.org/2000/svg">
<path d="M40.0004 72.821C38.5943 72.821 37.4095 72.339 36.4462 71.3751C35.4823 70.4112 35.0004 69.2265 35.0004 67.821C35.0004 66.4148 35.4823 65.2299 36.4462 64.266C37.4095 63.3026 38.5943 62.821 40.0004 62.821C41.4065 62.821 42.5912 63.3026 43.5545 64.266C44.5184 65.2299 45.0004 66.4148 45.0004 67.821C45.0004 69.2265 44.5184 70.4112 43.5545 71.3751C42.5912 72.339 41.4065 72.821 40.0004 72.821ZM20.7695 16.1543C19.3634 16.1543 18.1787 15.6724 17.2154 14.7085C16.2515 13.7446 15.7695 12.5599 15.7695 11.1543C15.7695 9.74819 16.2515 8.56319 17.2154 7.5993C18.1787 6.63597 19.3634 6.1543 20.7695 6.1543C22.1756 6.1543 23.3604 6.63597 24.3237 7.5993C25.2876 8.56319 25.7695 9.74819 25.7695 11.1543C25.7695 12.5599 25.2876 13.7446 24.3237 14.7085C23.3604 15.6724 22.1756 16.1543 20.7695 16.1543ZM20.7695 35.3851C19.3634 35.3851 18.1787 34.9032 17.2154 33.9393C16.2515 32.9754 15.7695 31.7907 15.7695 30.3851C15.7695 28.979 16.2515 27.794 17.2154 26.8301C18.1787 25.8668 19.3634 25.3851 20.7695 25.3851C22.1756 25.3851 23.3604 25.8668 24.3237 26.8301C25.2876 27.794 25.7695 28.979 25.7695 30.3851C25.7695 31.7907 25.2876 32.9754 24.3237 33.9393C23.3604 34.9032 22.1756 35.3851 20.7695 35.3851ZM20.7695 54.6151C19.3634 54.6151 18.1787 54.1335 17.2154 53.1701C16.2515 52.2062 15.7695 51.0212 15.7695 49.6151C15.7695 48.2096 16.2515 47.0249 17.2154 46.061C18.1787 45.0971 19.3634 44.6151 20.7695 44.6151C22.1756 44.6151 23.3604 45.0971 24.3237 46.061C25.2876 47.0249 25.7695 48.2096 25.7695 49.6151C25.7695 51.0212 25.2876 52.2062 24.3237 53.1701C23.3604 54.1335 22.1756 54.6151 20.7695 54.6151ZM59.2312 16.1543C57.8251 16.1543 56.6404 15.6724 55.677 14.7085C54.7131 13.7446 54.2312 12.5599 54.2312 11.1543C54.2312 9.74819 54.7131 8.56319 55.677 7.5993C56.6404 6.63597 57.8251 6.1543 59.2312 6.1543C60.6373 6.1543 61.822 6.63597 62.7854 7.5993C63.7493 8.56319 64.2312 9.74819 64.2312 11.1543C64.2312 12.5599 63.7493 13.7446 62.7854 14.7085C61.822 15.6724 60.6373 16.1543 59.2312 16.1543ZM40.0004 54.6151C38.5943 54.6151 37.4095 54.1335 36.4462 53.1701C35.4823 52.2062 35.0004 51.0212 35.0004 49.6151C35.0004 48.2096 35.4823 47.0249 36.4462 46.061C37.4095 45.0971 38.5943 44.6151 40.0004 44.6151C41.4065 44.6151 42.5912 45.0971 43.5545 46.061C44.5184 47.0249 45.0004 48.2096 45.0004 49.6151C45.0004 51.0212 44.5184 52.2062 43.5545 53.1701C42.5912 54.1335 41.4065 54.6151 40.0004 54.6151ZM59.2312 54.6151C57.8251 54.6151 56.6404 54.1335 55.677 53.1701C54.7131 52.2062 54.2312 51.0212 54.2312 49.6151C54.2312 48.2096 54.7131 47.0249 55.677 46.061C56.6404 45.0971 57.8251 44.6151 59.2312 44.6151C60.6373 44.6151 61.822 45.0971 62.7854 46.061C63.7493 47.0249 64.2312 48.2096 64.2312 49.6151C64.2312 51.0212 63.7493 52.2062 62.7854 53.1701C61.822 54.1335 60.6373 54.6151 59.2312 54.6151ZM59.2312 35.3851C57.8251 35.3851 56.6404 34.9032 55.677 33.9393C54.7131 32.9754 54.2312 31.7907 54.2312 30.3851C54.2312 28.979 54.7131 27.794 55.677 26.8301C56.6404 25.8668 57.8251 25.3851 59.2312 25.3851C60.6373 25.3851 61.822 25.8668 62.7854 26.8301C63.7493 27.794 64.2312 28.979 64.2312 30.3851C64.2312 31.7907 63.7493 32.9754 62.7854 33.9393C61.822 34.9032 60.6373 35.3851 59.2312 35.3851ZM40.0004 35.3851C38.5943 35.3851 37.4095 34.9032 36.4462 33.9393C35.4823 32.9754 35.0004 31.7907 35.0004 30.3851C35.0004 28.979 35.4823 27.794 36.4462 26.8301C37.4095 25.8668 38.5943 25.3851 40.0004 25.3851C41.4065 25.3851 42.5912 25.8668 43.5545 26.8301C44.5184 27.794 45.0004 28.979 45.0004 30.3851C45.0004 31.7907 44.5184 32.9754 43.5545 33.9393C42.5912 34.9032 41.4065 35.3851 40.0004 35.3851ZM40.0004 16.1543C38.5943 16.1543 37.4095 15.6724 36.4462 14.7085C35.4823 13.7446 35.0004 12.5599 35.0004 11.1543C35.0004 9.74819 35.4823 8.56319 36.4462 7.5993C37.4095 6.63597 38.5943 6.1543 40.0004 6.1543C41.4065 6.1543 42.5912 6.63597 43.5545 7.5993C44.5184 8.56319 45.0004 9.74819 45.0004 11.1543C45.0004 12.5599 44.5184 13.7446 43.5545 14.7085C42.5912 15.6724 41.4065 16.1543 40.0004 16.1543Z" fill="#777777"/>
</svg>
