<svg width="80" height="80" viewBox="0 0 80 80" fill="none" xmlns="http://www.w3.org/2000/svg">
<path d="M54.9997 64.3592C57.5897 64.3592 59.7969 63.4575 61.6213 61.6542C63.4463 59.8503 64.3588 57.6322 64.3588 55C64.3588 52.41 63.4463 50.2028 61.6213 48.3783C59.7969 46.5533 57.5897 45.6408 54.9997 45.6408C52.3675 45.6408 50.1494 46.5533 48.3455 48.3783C46.5422 50.2028 45.6405 52.41 45.6405 55C45.6405 57.6322 46.5422 59.8503 48.3455 61.6542C50.1494 63.4575 52.3675 64.3592 54.9997 64.3592ZM71.9997 74.3592L62.6788 65.0575C61.5977 65.9081 60.4088 66.5597 59.1122 67.0125C57.815 67.4658 56.4441 67.6925 54.9997 67.6925C51.4741 67.6925 48.4775 66.4583 46.0097 63.99C43.5413 61.5222 42.3072 58.5256 42.3072 55C42.3072 51.4744 43.5413 48.4778 46.0097 46.01C48.4775 43.5417 51.4741 42.3075 54.9997 42.3075C58.5252 42.3075 61.5219 43.5417 63.9897 46.01C66.458 48.4778 67.6922 51.4744 67.6922 55C67.6922 56.4572 67.4516 57.845 66.9705 59.1633C66.49 60.4817 65.8244 61.6814 64.9738 62.7625L74.2947 72L71.9997 74.3592ZM18.718 70C17.1836 70 15.9025 69.4861 14.8747 68.4583C13.8469 67.4306 13.333 66.1494 13.333 64.615V15.385C13.333 13.8506 13.8469 12.5694 14.8747 11.5417C15.9025 10.5139 17.1836 10 18.718 10H44.9997L59.9997 25V35.0642C59.1791 34.8503 58.3522 34.6794 57.5188 34.5517C56.6855 34.4233 55.8458 34.3592 54.9997 34.3592C48.7219 34.3592 43.7058 36.4947 39.9513 40.7658C36.1975 45.0375 34.3205 49.8442 34.3205 55.1858C34.3205 57.8608 34.8513 60.4783 35.913 63.0383C36.9752 65.5983 38.6644 67.9189 40.9805 70H18.718ZM43.333 26.6667H56.6663L43.333 13.3333V26.6667Z" fill="#777777"/>
</svg>
