<svg width="80" height="80" viewBox="0 0 80 80" fill="none" xmlns="http://www.w3.org/2000/svg">
<path d="M12.9163 60.416C10.9719 58.4716 9.99967 56.1105 9.99967 53.3327H3.33301V23.3327C3.33301 21.4993 3.98579 19.9299 5.29134 18.6243C6.5969 17.3188 8.16634 16.666 9.99967 16.666H56.6663L76.6663 36.666V53.3327H69.9997C69.9997 56.1105 69.0275 58.4716 67.083 60.416C65.1386 62.3605 62.7775 63.3327 59.9997 63.3327C57.2219 63.3327 54.8608 62.3605 52.9163 60.416C50.9719 58.4716 49.9997 56.1105 49.9997 53.3327H29.9997C29.9997 56.1105 29.0275 58.4716 27.083 60.416C25.1386 62.3605 22.7775 63.3327 19.9997 63.3327C17.2219 63.3327 14.8608 62.3605 12.9163 60.416ZM49.9997 33.3327H63.333L53.333 23.3327H49.9997V33.3327ZM29.9997 33.3327H43.333V23.3327H29.9997V33.3327ZM9.99967 33.3327H23.333V23.3327H9.99967V33.3327ZM22.958 56.291C23.7636 55.4855 24.1663 54.4994 24.1663 53.3327C24.1663 52.166 23.7636 51.1799 22.958 50.3743C22.1525 49.5688 21.1663 49.166 19.9997 49.166C18.833 49.166 17.8469 49.5688 17.0413 50.3743C16.2358 51.1799 15.833 52.166 15.833 53.3327C15.833 54.4994 16.2358 55.4855 17.0413 56.291C17.8469 57.0966 18.833 57.4994 19.9997 57.4994C21.1663 57.4994 22.1525 57.0966 22.958 56.291ZM62.958 56.291C63.7636 55.4855 64.1663 54.4994 64.1663 53.3327C64.1663 52.166 63.7636 51.1799 62.958 50.3743C62.1525 49.5688 61.1663 49.166 59.9997 49.166C58.833 49.166 57.8469 49.5688 57.0413 50.3743C56.2358 51.1799 55.833 52.166 55.833 53.3327C55.833 54.4994 56.2358 55.4855 57.0413 56.291C57.8469 57.0966 58.833 57.4994 59.9997 57.4994C61.1663 57.4994 62.1525 57.0966 62.958 56.291Z" fill="#F0F0F0"/>
</svg>
