<svg width="80" height="80" viewBox="0 0 80 80" fill="none" xmlns="http://www.w3.org/2000/svg">
<path d="M58.5003 37.6292L49.0387 28.1676L51.417 25.8726L58.5003 32.9559L72.667 18.7892L75.0262 21.1676L58.5003 37.6292ZM22.9237 35.0267C20.9748 33.0778 20.0003 30.7187 20.0003 27.9492C20.0003 25.1803 20.9748 22.8214 22.9237 20.8726C24.872 18.9237 27.2309 17.9492 30.0003 17.9492C32.7698 17.9492 35.1287 18.9237 37.077 20.8726C39.0259 22.8214 40.0003 25.1803 40.0003 27.9492C40.0003 30.7187 39.0259 33.0778 37.077 35.0267C35.1287 36.9751 32.7698 37.9492 30.0003 37.9492C27.2309 37.9492 24.872 36.9751 22.9237 35.0267ZM6.66699 62.0526V56.5651C6.66699 55.1889 7.06755 53.9014 7.86866 52.7026C8.67033 51.5042 9.74838 50.5737 11.1028 49.9109C14.2484 48.4026 17.3959 47.2712 20.5453 46.5167C23.6948 45.7628 26.8464 45.3859 30.0003 45.3859C33.1542 45.3859 36.3059 45.7628 39.4553 46.5167C42.6048 47.2712 45.7523 48.4026 48.8978 49.9109C50.2523 50.5737 51.3303 51.5042 52.132 52.7026C52.9331 53.9014 53.3337 55.1889 53.3337 56.5651V62.0526H6.66699Z" fill="#777777"/>
</svg>
