<svg width="80" height="80" viewBox="0 0 80 80" fill="none" xmlns="http://www.w3.org/2000/svg">
<path d="M6.66699 73.3327V13.3327C6.66699 11.4993 7.31977 9.9299 8.62533 8.62435C9.93088 7.31879 11.5003 6.66602 13.3337 6.66602H66.667C68.5003 6.66602 70.0698 7.31879 71.3753 8.62435C72.6809 9.9299 73.3337 11.4993 73.3337 13.3327V53.3327C73.3337 55.166 72.6809 56.7355 71.3753 58.041C70.0698 59.3466 68.5003 59.9993 66.667 59.9993H20.0003L6.66699 73.3327ZM20.0003 46.666H46.667V39.9993H20.0003V46.666ZM20.0003 36.666H60.0003V29.9993H20.0003V36.666ZM20.0003 26.666H60.0003V19.9993H20.0003V26.666Z" fill="#F0F0F0"/>
</svg>
