<svg width="80" height="80" viewBox="0 0 80 80" fill="none" xmlns="http://www.w3.org/2000/svg">
<path d="M74.1035 64.8711H5.89844V61.5371H74.1035V64.8711ZM64.6162 14.8711C66.1504 14.8712 67.4313 15.3846 68.459 16.4121C69.4868 17.4399 70.001 18.7214 70.001 20.2559V52.8203C70.0009 54.354 69.4867 55.6344 68.459 56.6621C67.4313 57.6898 66.1505 58.204 64.6162 58.2041H15.3857C13.8514 58.2041 12.5707 57.6898 11.543 56.6621C10.5153 55.6344 10.0011 54.354 10.001 52.8203V20.2559C10.001 18.7214 10.5152 17.4399 11.543 16.4121C12.5706 15.3846 13.8516 14.8711 15.3857 14.8711H64.6162ZM31.6797 28.0312L25.9141 45H30.2266L31.375 41.3672H37.2812L38.4297 45H42.7188L36.9766 28.0312H31.6797ZM43.9375 28.0312V31.2891H46.9141V41.7422H43.9375V45H53.875V41.7422H50.8984V31.2891H53.875V28.0312H43.9375ZM34.3984 32.2266L36.3203 38.3203H32.3359L34.2578 32.2266H34.3984Z" fill="#F0F0F0"/>
</svg>
