<svg width="80" height="80" viewBox="0 0 80 80" fill="none" xmlns="http://www.w3.org/2000/svg">
<path d="M36.4166 45.9994L52.9616 29.5378L50.5833 27.1594L36.4166 41.3261L29.3333 34.2428L26.9741 36.6019L36.4166 45.9994ZM5.89746 64.8711V61.5378H74.1025V64.8711H5.89746ZM15.385 58.2044C13.8505 58.2044 12.5694 57.6905 11.5416 56.6628C10.5139 55.635 9.99996 54.3541 9.99996 52.8203V20.2561C9.99996 18.7216 10.5139 17.4405 11.5416 16.4128C12.5694 15.385 13.8505 14.8711 15.385 14.8711H64.615C66.1494 14.8711 67.4305 15.385 68.4583 16.4128C69.4861 17.4405 70 18.7216 70 20.2561V52.8203C70 54.3541 69.4861 55.635 68.4583 56.6628C67.4305 57.6905 66.1494 58.2044 64.615 58.2044H15.385Z" fill="#777777"/>
</svg>
