<svg width="80" height="80" viewBox="0 0 80 80" fill="none" xmlns="http://www.w3.org/2000/svg">
<path d="M39.2308 66.6673V63.334H61.2817C61.8372 63.334 62.3181 63.1631 62.7242 62.8215C63.1303 62.4793 63.3333 62.0304 63.3333 61.4748V38.5131C63.3333 32.2698 61.0375 27.0551 56.4458 22.869C51.8536 18.6834 46.3717 16.5907 40 16.5907C33.6283 16.5907 28.1464 18.6834 23.5542 22.869C18.9625 27.0551 16.6667 32.2698 16.6667 38.5131V57.4365H15C13.6367 57.4365 12.4625 56.9759 11.4775 56.0548C10.4925 55.1343 10 53.9923 10 52.629V46.3465C10 45.3509 10.3236 44.4676 10.9708 43.6965C11.6186 42.9248 12.4061 42.2976 13.3333 41.8148L13.3908 37.719C13.4508 34.2401 14.2061 31.0179 15.6567 28.0523C17.1078 25.0862 19.0458 22.5048 21.4708 20.3082C23.8964 18.1115 26.7 16.4001 29.8817 15.174C33.0633 13.9473 36.4361 13.334 40 13.334C43.5639 13.334 46.9336 13.9473 50.1092 15.174C53.2842 16.4001 56.0769 18.1084 58.4875 20.299C60.8975 22.489 62.8247 25.0668 64.2692 28.0323C65.7136 30.9984 66.4936 34.2207 66.6092 37.699L66.6667 41.7123C67.5511 42.1268 68.3278 42.6845 68.9967 43.3856C69.6656 44.0862 70 44.9279 70 45.9107V53.129C70 54.1118 69.6656 54.9537 68.9967 55.6548C68.3278 56.3554 67.5511 56.9129 66.6667 57.3273V61.4748C66.6667 62.9237 66.1422 64.1512 65.0933 65.1573C64.0439 66.164 62.7733 66.6673 61.2817 66.6673H39.2308ZM29.4842 44.4273C28.9736 43.959 28.7183 43.3809 28.7183 42.6931C28.7183 42.0048 28.9736 41.4162 29.4842 40.9273C29.9947 40.4379 30.5939 40.1931 31.2817 40.1931C31.97 40.1931 32.5694 40.4379 33.08 40.9273C33.5906 41.4162 33.8458 42.0048 33.8458 42.6931C33.8458 43.3809 33.5906 43.959 33.08 44.4273C32.5694 44.8951 31.97 45.129 31.2817 45.129C30.5939 45.129 29.9947 44.8951 29.4842 44.4273ZM46.92 44.4273C46.4094 43.959 46.1542 43.3809 46.1542 42.6931C46.1542 42.0048 46.4094 41.4162 46.92 40.9273C47.4306 40.4379 48.03 40.1931 48.7183 40.1931C49.4061 40.1931 50.0053 40.4379 50.5158 40.9273C51.0264 41.4162 51.2817 42.0048 51.2817 42.6931C51.2817 43.3809 51.0264 43.959 50.5158 44.4273C50.0053 44.8951 49.4061 45.129 48.7183 45.129C48.03 45.129 47.4306 44.8951 46.92 44.4273ZM22.3908 39.834C22.0875 34.8423 23.6944 30.5881 27.2117 27.0715C30.7289 23.5543 35.0472 21.7956 40.1667 21.7956C44.47 21.7956 48.2831 23.0873 51.6058 25.6706C54.9286 28.254 56.9575 31.6481 57.6925 35.8531C53.2781 35.7976 49.1808 34.6715 45.4008 32.4748C41.6208 30.2782 38.72 27.2226 36.6983 23.3082C35.895 27.1543 34.2231 30.5251 31.6825 33.4206C29.1419 36.3156 26.0447 38.4534 22.3908 39.834Z" fill="#777777"/>
</svg>
