<svg width="80" height="80" viewBox="0 0 80 80" fill="none" xmlns="http://www.w3.org/2000/svg">
<path d="M66.5 70C59.5556 70 52.6944 68.4861 45.9167 65.4583C39.1389 62.4306 32.9722 58.1389 27.4167 52.5833C21.8611 47.0278 17.5694 40.8611 14.5417 34.0833C11.5139 27.3056 10 20.4444 10 13.5C10 12.5 10.3333 11.6667 11 11C11.6667 10.3333 12.5 10 13.5 10H27C27.7778 10 28.4722 10.2639 29.0833 10.7917C29.6944 11.3194 30.0556 11.9444 30.1667 12.6667L32.3333 24.3333C32.4444 25.2222 32.4167 25.9722 32.25 26.5833C32.0833 27.1944 31.7778 27.7222 31.3333 28.1667L23.25 36.3333C24.3611 38.3889 25.6806 40.375 27.2083 42.2917C28.7361 44.2083 30.4167 46.0556 32.25 47.8333C33.9722 49.5556 35.7778 51.1528 37.6667 52.625C39.5556 54.0972 41.5556 55.4444 43.6667 56.6667L51.5 48.8333C52 48.3333 52.6528 47.9583 53.4583 47.7083C54.2639 47.4583 55.0556 47.3889 55.8333 47.5L67.3333 49.8333C68.1111 50.0556 68.75 50.4583 69.25 51.0417C69.75 51.625 70 52.2778 70 53V66.5C70 67.5 69.6667 68.3333 69 69C68.3333 69.6667 67.5 70 66.5 70Z" fill="#F0F0F0"/>
</svg>
