<svg width="24" height="24" viewBox="0 0 24 24" fill="none" xmlns="http://www.w3.org/2000/svg">
<path fill-rule="evenodd" clip-rule="evenodd" d="M11.1828 11.4177C11.0657 11.5349 11 11.6938 11 11.8594C11 12.025 11.0657 12.1839 11.1828 12.3011L17.4328 18.5511C17.49 18.6125 17.559 18.6617 17.6357 18.6959C17.7123 18.7301 17.7951 18.7484 17.879 18.7499C17.9629 18.7514 18.0463 18.7359 18.1241 18.7045C18.2019 18.6731 18.2726 18.6263 18.332 18.5669C18.3913 18.5076 18.4381 18.4369 18.4696 18.3591C18.501 18.2813 18.5164 18.1979 18.5149 18.114C18.5135 18.0301 18.4951 17.9473 18.4609 17.8706C18.4268 17.794 18.3775 17.725 18.3161 17.6677L12.5078 11.8594L18.3161 6.05108C18.4265 5.9326 18.4866 5.77589 18.4838 5.61397C18.4809 5.45206 18.4153 5.29757 18.3008 5.18306C18.1863 5.06855 18.0318 5.00295 17.8699 5.0001C17.708 4.99724 17.5513 5.05734 17.4328 5.16774L11.1828 11.4177Z" fill="black"/>
<path fill-rule="evenodd" clip-rule="evenodd" d="M6.18278 11.4177C6.06574 11.5349 6 11.6938 6 11.8594C6 12.025 6.06574 12.1839 6.18278 12.3011L12.4328 18.5511C12.49 18.6125 12.559 18.6617 12.6357 18.6959C12.7123 18.7301 12.7951 18.7484 12.879 18.7499C12.9629 18.7514 13.0463 18.7359 13.1241 18.7045C13.2019 18.6731 13.2726 18.6263 13.332 18.5669C13.3913 18.5076 13.4381 18.4369 13.4696 18.3591C13.501 18.2813 13.5164 18.1979 13.5149 18.114C13.5135 18.0301 13.4951 17.9473 13.4609 17.8706C13.4268 17.794 13.3775 17.725 13.3161 17.6677L7.50778 11.8594L13.3161 6.05108C13.4265 5.9326 13.4866 5.77589 13.4838 5.61397C13.4809 5.45206 13.4153 5.29757 13.3008 5.18306C13.1863 5.06855 13.0318 5.00295 12.8699 5.0001C12.708 4.99724 12.5513 5.05734 12.4328 5.16774L6.18278 11.4177Z" fill="black"/>
</svg>
