<svg width="24" height="24" viewBox="0 0 24 24" fill="none" xmlns="http://www.w3.org/2000/svg">
<path fill-rule="evenodd" clip-rule="evenodd" d="M10.7203 11.4708C10.5799 11.6114 10.501 11.8021 10.501 12.0008C10.501 12.1996 10.5799 12.3902 10.7203 12.5308L18.2203 20.0308C18.289 20.1045 18.3718 20.1636 18.4638 20.2046C18.5558 20.2456 18.6551 20.2676 18.7558 20.2694C18.8565 20.2712 18.9565 20.2527 19.0499 20.2149C19.1433 20.1772 19.2281 20.1211 19.2994 20.0499C19.3706 19.9786 19.4267 19.8938 19.4644 19.8004C19.5022 19.707 19.5207 19.607 19.5189 19.5063C19.5171 19.4056 19.4951 19.3063 19.4541 19.2143C19.4131 19.1223 19.354 19.0395 19.2803 18.9708L12.3103 12.0008L19.2803 5.03082C19.4128 4.88865 19.4849 4.7006 19.4815 4.5063C19.4781 4.312 19.3994 4.12661 19.2619 3.9892C19.1245 3.85179 18.9391 3.77308 18.7448 3.76965C18.5505 3.76622 18.3625 3.83834 18.2203 3.97082L10.7203 11.4708Z" fill="black"/>
<path fill-rule="evenodd" clip-rule="evenodd" d="M4.72032 11.4708C4.57987 11.6114 4.50098 11.8021 4.50098 12.0008C4.50098 12.1996 4.57987 12.3902 4.72032 12.5308L12.2203 20.0308C12.289 20.1045 12.3718 20.1636 12.4638 20.2046C12.5558 20.2456 12.6551 20.2676 12.7558 20.2694C12.8565 20.2712 12.9565 20.2527 13.0499 20.2149C13.1433 20.1772 13.2281 20.1211 13.2994 20.0499C13.3706 19.9786 13.4267 19.8938 13.4644 19.8004C13.5022 19.707 13.5207 19.607 13.5189 19.5063C13.5171 19.4056 13.4951 19.3063 13.4541 19.2143C13.4131 19.1223 13.354 19.0395 13.2803 18.9708L6.31032 12.0008L13.2803 5.03082C13.4128 4.88865 13.4849 4.7006 13.4815 4.5063C13.4781 4.312 13.3994 4.12661 13.2619 3.9892C13.1245 3.85179 12.9391 3.77308 12.7448 3.76965C12.5505 3.76622 12.3625 3.83834 12.2203 3.97082L4.72032 11.4708Z" fill="black"/>
</svg>
