<svg width="24" height="24" viewBox="0 0 24 24" fill="none" xmlns="http://www.w3.org/2000/svg">
<path fill-rule="evenodd" clip-rule="evenodd" d="M13.2798 11.4708C13.4203 11.6114 13.4992 11.8021 13.4992 12.0008C13.4992 12.1996 13.4203 12.3902 13.2798 12.5308L5.77985 20.0308C5.63767 20.1633 5.44963 20.2354 5.25532 20.232C5.06102 20.2286 4.87564 20.1499 4.73822 20.0124C4.60081 19.875 4.5221 19.6896 4.51867 19.4953C4.51524 19.301 4.58737 19.113 4.71985 18.9708L11.6898 12.0008L4.71985 5.03082C4.58737 4.88865 4.51524 4.7006 4.51867 4.5063C4.5221 4.312 4.60081 4.12661 4.73822 3.9892C4.87564 3.85179 5.06102 3.77308 5.25532 3.76965C5.44963 3.76622 5.63767 3.83834 5.77985 3.97082L13.2798 11.4708Z" fill="black"/>
<path fill-rule="evenodd" clip-rule="evenodd" d="M19.2802 11.4708C19.4206 11.6114 19.4995 11.8021 19.4995 12.0008C19.4995 12.1996 19.4206 12.3902 19.2802 12.5308L11.7802 20.0308C11.7115 20.1045 11.6287 20.1636 11.5367 20.2046C11.4447 20.2456 11.3454 20.2676 11.2447 20.2694C11.144 20.2712 11.0439 20.2527 10.9506 20.2149C10.8572 20.1772 10.7723 20.1211 10.7011 20.0499C10.6299 19.9786 10.5738 19.8938 10.536 19.8004C10.4983 19.707 10.4798 19.607 10.4816 19.5063C10.4833 19.4056 10.5054 19.3063 10.5464 19.2143C10.5874 19.1223 10.6465 19.0395 10.7202 18.9708L17.6902 12.0008L10.7202 5.03082C10.5877 4.88865 10.5156 4.7006 10.519 4.5063C10.5224 4.312 10.6011 4.12661 10.7385 3.9892C10.8759 3.85179 11.0613 3.77308 11.2556 3.76965C11.4499 3.76622 11.638 3.83834 11.7802 3.97082L19.2802 11.4708Z" fill="black"/>
</svg>
