<svg width="24" height="24" viewBox="0 0 24 24" fill="none" xmlns="http://www.w3.org/2000/svg">
<path fill-rule="evenodd" clip-rule="evenodd" d="M13.3011 11.4177C13.4181 11.5349 13.4839 11.6938 13.4839 11.8594C13.4839 12.025 13.4181 12.1839 13.3011 12.3011L7.05108 18.5511C6.9326 18.6615 6.77589 18.7216 6.61397 18.7187C6.45206 18.7159 6.29757 18.6503 6.18306 18.5358C6.06855 18.4213 6.00295 18.2668 6.0001 18.1048C5.99724 17.9429 6.05734 17.7862 6.16774 17.6677L11.9761 11.8594L6.16774 6.05108C6.05734 5.9326 5.99724 5.77589 6.0001 5.61397C6.00295 5.45206 6.06855 5.29757 6.18306 5.18306C6.29757 5.06855 6.45206 5.00295 6.61397 5.0001C6.77589 4.99724 6.9326 5.05734 7.05108 5.16774L13.3011 11.4177Z" fill="black"/>
<path fill-rule="evenodd" clip-rule="evenodd" d="M18.301 11.4177C18.418 11.5349 18.4838 11.6938 18.4838 11.8594C18.4838 12.025 18.418 12.1839 18.301 12.3011L12.051 18.5511C11.9938 18.6125 11.9248 18.6617 11.8481 18.6959C11.7715 18.7301 11.6887 18.7484 11.6048 18.7499C11.5209 18.7514 11.4375 18.7359 11.3597 18.7045C11.2819 18.6731 11.2112 18.6263 11.1518 18.5669C11.0925 18.5076 11.0457 18.4369 11.0142 18.3591C10.9828 18.2813 10.9674 18.1979 10.9688 18.114C10.9703 18.0301 10.9887 17.9473 11.0229 17.8706C11.057 17.794 11.1063 17.725 11.1677 17.6677L16.976 11.8594L11.1677 6.05108C11.0573 5.9326 10.9972 5.77589 11 5.61397C11.0029 5.45206 11.0685 5.29757 11.183 5.18306C11.2975 5.06855 11.452 5.00295 11.6139 5.0001C11.7758 4.99724 11.9325 5.05734 12.051 5.16774L18.301 11.4177Z" fill="black"/>
</svg>
