<svg width="108" height="50" viewBox="0 0 108 50" fill="none" xmlns="http://www.w3.org/2000/svg">
<g clip-path="url(#clip0_642_30)">
<path d="M83.8691 41.8009V33.2109H88.4191V42.4209L83.8691 41.8009Z" fill="#414141"/>
<path d="M18.5793 34.8303V39.3903H3.23926V26.0703H7.78926V34.8303H18.5793Z" fill="#414141"/>
<path d="M42.4795 31.171L48.5695 25.541L51.4595 28.431L45.8295 34.061L42.4795 31.171Z" fill="#414141"/>
<path d="M49.81 24.2701H42.79V19.7201H49.89V14.5801H54.44V19.7201H60.86V24.2701H54.51H49.81Z" fill="#414141"/>
<path d="M63.3594 19.6698H70.7794V14.5098H75.3294V32.5498H70.7794V24.2198H63.3594V19.6698Z" fill="#414141"/>
<path d="M68.99 34.2012C65.03 34.2012 61.75 37.5012 61.75 41.7412C61.75 45.9812 65.03 49.1312 68.99 49.1312C72.95 49.1312 76.23 45.9112 76.23 41.7412C76.23 37.5712 72.95 34.2012 68.99 34.2012ZM68.99 44.6512C67.65 44.6512 66.38 43.2412 66.38 41.7412C66.38 40.2412 67.65 38.9112 68.99 38.9112C70.41 38.9112 71.68 40.2512 71.68 41.7412C71.68 43.2312 70.41 44.6512 68.99 44.6512Z" fill="#414141"/>
<path d="M92.1998 26.2099V30.7699H78.2998V16.4199H82.8598V26.2099H92.1998Z" fill="#414141"/>
<path d="M94.7295 19.0998H102.429V14.5098H106.979V35.4998H102.429V30.7898H94.7295V26.2298H102.429V23.6598H94.7295V19.0998Z" fill="#414141"/>
<path d="M39.2693 4.43039V0.650391H24.5693V15.8304H29.6193V20.3904H34.0693V15.8304H39.2693V12.0504H29.1393V10.1604H39.2693V6.38039H29.1393V4.43039H39.2693Z" fill="#414141"/>
<path d="M31.8898 25.4902C28.0098 25.4902 24.7998 28.7202 24.7998 32.8802C24.7998 37.0402 28.0198 40.1202 31.8898 40.1202C35.7598 40.1202 38.9798 36.9602 38.9798 32.8802C38.9798 28.8002 35.7598 25.4902 31.8898 25.4902ZM31.8898 35.7302C30.4998 35.7302 29.3298 34.3402 29.3298 32.8802C29.3298 31.4202 30.4998 30.1102 31.8898 30.1102C33.2798 30.1102 34.5198 31.4202 34.5198 32.8802C34.5198 34.3402 33.2798 35.7302 31.8898 35.7302Z" fill="#414141"/>
<path d="M18.0093 8.05992C18.0093 3.89992 14.7893 0.669922 10.9193 0.669922C7.04934 0.669922 3.81934 3.89992 3.81934 8.05992C3.81934 11.3199 5.87934 13.9899 8.68934 14.9299V20.3899H13.1393V14.9299C15.9493 13.9899 18.0093 11.3199 18.0093 8.05992ZM10.9093 10.9099C9.51934 10.9099 8.34934 9.51992 8.34934 8.05992C8.34934 6.59992 9.51934 5.28992 10.9093 5.28992C12.2993 5.28992 13.5393 6.59992 13.5393 8.05992C13.5393 9.51992 12.2993 10.9099 10.9093 10.9099Z" fill="#414141"/>
<path d="M74.9396 40.8809C72.2796 40.8809 69.7196 39.8509 67.7996 38.0109L48.0996 19.7109H46.1296H22.2696H0.0595703V24.2709H8.80957H46.0096L64.4496 41.3509C67.1796 43.9709 70.8196 45.4209 74.5996 45.4209H107.06V40.8609H74.9396V40.8809Z" fill="url(#paint0_linear_642_30)"/>
<mask id="mask0_642_30" style="mask-type:luminance" maskUnits="userSpaceOnUse" x="57" y="31" width="14" height="16">
<path d="M70.36 33.0896L69.74 41.9196L61.98 46.1896L57.96 39.2196L65.67 31.8496L70.36 33.0896Z" fill="white"/>
</mask>
<g mask="url(#mask0_642_30)">
<path d="M68.99 34.1992C65.03 34.1992 61.75 37.4992 61.75 41.7392C61.75 45.9792 65.03 49.1292 68.99 49.1292C72.95 49.1292 76.23 45.9092 76.23 41.7392C76.23 37.5692 72.95 34.1992 68.99 34.1992ZM68.99 44.6492C67.65 44.6492 66.38 43.2392 66.38 41.7392C66.38 40.2392 67.65 38.9092 68.99 38.9092C70.41 38.9092 71.68 40.2492 71.68 41.7392C71.68 43.2292 70.41 44.6492 68.99 44.6492Z" fill="#414141"/>
</g>
</g>
<defs>
<linearGradient id="paint0_linear_642_30" x1="0.00957063" y1="19.9209" x2="107.28" y2="42.3309" gradientUnits="userSpaceOnUse">
<stop stop-color="#F497A2"/>
<stop offset="0.2" stop-color="#D295B9"/>
<stop offset="0.4" stop-color="#AC92BC"/>
<stop offset="0.6" stop-color="#8C90BF"/>
<stop offset="0.8" stop-color="#8ABCDC"/>
<stop offset="1" stop-color="#91C9CB"/>
</linearGradient>
<clipPath id="clip0_642_30">
<rect width="107.61" height="49.55" fill="white"/>
</clipPath>
</defs>
</svg>
