<svg width="20" height="20" viewBox="0 0 20 20" fill="none" xmlns="http://www.w3.org/2000/svg">
<path fill-rule="evenodd" clip-rule="evenodd" d="M13.5667 9.55837C13.6837 9.67556 13.7495 9.83441 13.7495 10C13.7495 10.1657 13.6837 10.3245 13.5667 10.4417L7.3167 16.6917C7.19822 16.8021 7.04152 16.8622 6.8796 16.8593C6.71768 16.8565 6.56319 16.7909 6.44868 16.6764C6.33417 16.5619 6.26858 16.4074 6.26572 16.2455C6.26287 16.0836 6.32297 15.9268 6.43337 15.8084L12.2417 10L6.43337 4.1917C6.32297 4.07322 6.26287 3.91652 6.26572 3.7546C6.26858 3.59268 6.33417 3.43819 6.44868 3.32368C6.56319 3.20917 6.71768 3.14358 6.8796 3.14072C7.04152 3.13787 7.19822 3.19797 7.3167 3.30837L13.5667 9.55837Z" fill="black"/>
</svg>
