<svg width="24" height="24" viewBox="0 0 24 24" fill="none" xmlns="http://www.w3.org/2000/svg">
<path fill-rule="evenodd" clip-rule="evenodd" d="M12.5298 16.2792C12.3892 16.4196 12.1986 16.4985 11.9998 16.4985C11.8011 16.4985 11.6105 16.4196 11.4698 16.2792L3.96985 8.77918C3.83737 8.637 3.76524 8.44896 3.76867 8.25465C3.7721 8.06035 3.85081 7.87497 3.98822 7.73755C4.12564 7.60014 4.31102 7.52143 4.50532 7.518C4.69963 7.51457 4.88767 7.5867 5.02985 7.71918L11.9998 14.6892L18.9698 7.71918C19.0385 7.64549 19.1213 7.58639 19.2133 7.5454C19.3053 7.5044 19.4046 7.48236 19.5053 7.48059C19.606 7.47881 19.7061 7.49733 19.7994 7.53505C19.8928 7.57278 19.9777 7.62892 20.0489 7.70014C20.1201 7.77136 20.1762 7.85619 20.214 7.94958C20.2517 8.04297 20.2702 8.143 20.2684 8.2437C20.2667 8.3444 20.2446 8.44372 20.2036 8.53571C20.1626 8.62771 20.1035 8.71051 20.0298 8.77918L12.5298 16.2792Z" fill="black"/>
</svg>
