<svg width="80" height="80" viewBox="0 0 80 80" fill="none" xmlns="http://www.w3.org/2000/svg">
<path d="M32.9163 40.416C30.9719 38.4716 29.9997 36.1105 29.9997 33.3327C29.9997 30.5549 30.9719 28.1938 32.9163 26.2493C34.8608 24.3049 37.2219 23.3327 39.9997 23.3327C42.7775 23.3327 45.1386 24.3049 47.083 26.2493C49.0275 28.1938 49.9997 30.5549 49.9997 33.3327C49.9997 36.1105 49.0275 38.4716 47.083 40.416C45.1386 42.3605 42.7775 43.3327 39.9997 43.3327C37.2219 43.3327 34.8608 42.3605 32.9163 40.416ZM19.9997 76.666V50.916C17.8886 48.5827 16.2497 45.916 15.083 42.916C13.9163 39.916 13.333 36.7216 13.333 33.3327C13.333 25.8882 15.9163 19.5827 21.083 14.416C26.2497 9.24935 32.5552 6.66602 39.9997 6.66602C47.4441 6.66602 53.7497 9.24935 58.9163 14.416C64.083 19.5827 66.6663 25.8882 66.6663 33.3327C66.6663 36.7216 66.083 39.916 64.9163 42.916C63.7497 45.916 62.1108 48.5827 59.9997 50.916V76.666L39.9997 69.9994L19.9997 76.666ZM54.1663 47.4994C58.0552 43.6105 59.9997 38.8882 59.9997 33.3327C59.9997 27.7771 58.0552 23.0549 54.1663 19.166C50.2774 15.2771 45.5552 13.3327 39.9997 13.3327C34.4441 13.3327 29.7219 15.2771 25.833 19.166C21.9441 23.0549 19.9997 27.7771 19.9997 33.3327C19.9997 38.8882 21.9441 43.6105 25.833 47.4994C29.7219 51.3882 34.4441 53.3327 39.9997 53.3327C45.5552 53.3327 50.2774 51.3882 54.1663 47.4994ZM26.6663 66.7494L39.9997 63.3327L53.333 66.7494V56.416C51.3886 57.5271 49.2913 58.4021 47.0413 59.041C44.7913 59.6799 42.4441 59.9994 39.9997 59.9994C37.5552 59.9994 35.208 59.6799 32.958 59.041C30.708 58.4021 28.6108 57.5271 26.6663 56.416V66.7494Z" fill="#777777"/>
</svg>
