<svg width="20" height="20" viewBox="0 0 20 20" fill="none" xmlns="http://www.w3.org/2000/svg">
<path fill-rule="evenodd" clip-rule="evenodd" d="M6.43376 10.4416C6.31672 10.3244 6.25098 10.1656 6.25098 9.99997C6.25098 9.83434 6.31672 9.67549 6.43376 9.5583L12.6838 3.3083C12.741 3.24689 12.81 3.19764 12.8866 3.16348C12.9633 3.12932 13.0461 3.11095 13.13 3.10947C13.2139 3.10799 13.2973 3.12343 13.3751 3.15486C13.4529 3.1863 13.5236 3.23308 13.583 3.29243C13.6423 3.35178 13.6891 3.42248 13.7205 3.5003C13.752 3.57812 13.7674 3.66148 13.7659 3.7454C13.7644 3.82932 13.7461 3.91208 13.7119 3.98875C13.6778 4.06541 13.6285 4.13441 13.5671 4.19163L7.75876 9.99997L13.5671 15.8083C13.6285 15.8655 13.6778 15.9345 13.7119 16.0112C13.7461 16.0878 13.7644 16.1706 13.7659 16.2545C13.7674 16.3384 13.752 16.4218 13.7205 16.4996C13.6891 16.5775 13.6423 16.6481 13.583 16.7075C13.5236 16.7668 13.4529 16.8136 13.3751 16.8451C13.2973 16.8765 13.2139 16.8919 13.13 16.8905C13.0461 16.889 12.9633 16.8706 12.8866 16.8364C12.81 16.8023 12.741 16.753 12.6838 16.6916L6.43376 10.4416Z" fill="black"/>
</svg>
