<svg width="24" height="24" viewBox="0 0 24 24" fill="none" xmlns="http://www.w3.org/2000/svg">
<path fill-rule="evenodd" clip-rule="evenodd" d="M7.72032 12.5292C7.57987 12.3886 7.50098 12.1979 7.50098 11.9992C7.50098 11.8004 7.57987 11.6098 7.72032 11.4692L15.2203 3.96918C15.289 3.89549 15.3718 3.83639 15.4638 3.7954C15.5558 3.7544 15.6551 3.73236 15.7558 3.73059C15.8565 3.72881 15.9565 3.74733 16.0499 3.78505C16.1433 3.82278 16.2281 3.87892 16.2994 3.95014C16.3706 4.02136 16.4267 4.10619 16.4644 4.19958C16.5022 4.29297 16.5207 4.393 16.5189 4.4937C16.5171 4.5944 16.4951 4.69372 16.4541 4.78572C16.4131 4.87771 16.354 4.96052 16.2803 5.02918L9.31032 11.9992L16.2803 18.9692C16.354 19.0378 16.4131 19.1206 16.4541 19.2126C16.4951 19.3046 16.5171 19.404 16.5189 19.5047C16.5207 19.6054 16.5022 19.7054 16.4644 19.7988C16.4267 19.8922 16.3706 19.977 16.2994 20.0482C16.2281 20.1194 16.1433 20.1756 16.0499 20.2133C15.9565 20.251 15.8565 20.2695 15.7558 20.2678C15.6551 20.266 15.5558 20.244 15.4638 20.203C15.3718 20.162 15.289 20.1029 15.2203 20.0292L7.72032 12.5292Z" fill="black"/>
</svg>
