<svg width="30" height="30" viewBox="0 0 30 30" fill="none" xmlns="http://www.w3.org/2000/svg">
<g clip-path="url(#clip0_645_151)">
<path d="M30 15C30 6.71573 23.2843 0 15 0C6.71573 0 0 6.71573 0 15C0 23.2843 6.71573 30 15 30C23.2843 30 30 23.2843 30 15Z" fill="#1D1D1D"/>
<path d="M19.7502 18.957V22.9154H18.1668V18.957C18.1668 15.4331 20.26 12.3981 23.2708 11.0273L23.9261 12.4691C21.4628 13.5906 19.7502 16.0739 19.7502 18.957ZM11.8335 18.957V22.9154H10.2502V18.957C10.2502 16.0739 8.53761 13.5906 6.07422 12.4691L6.72957 11.0273C9.74037 12.3981 11.8335 15.4331 11.8335 18.957ZM15.0002 14.9987C12.8141 14.9987 11.0419 13.2265 11.0419 11.0404C11.0419 8.85424 12.8141 7.08203 15.0002 7.08203C17.1863 7.08203 18.9585 8.85424 18.9585 11.0404C18.9585 13.2265 17.1863 14.9987 15.0002 14.9987ZM15.0002 13.4154C16.3119 13.4154 17.3752 12.352 17.3752 11.0404C17.3752 9.72869 16.3119 8.66536 15.0002 8.66536C13.6885 8.66536 12.6252 9.72869 12.6252 11.0404C12.6252 12.352 13.6885 13.4154 15.0002 13.4154Z" fill="white"/>
</g>
<defs>
<clipPath id="clip0_645_151">
<rect width="30" height="30" fill="white"/>
</clipPath>
</defs>
</svg>
