<svg width="80" height="80" viewBox="0 0 80 80" fill="none" xmlns="http://www.w3.org/2000/svg">
<path d="M24.9997 44.9996V41.6663H54.9997V44.9996H24.9997ZM24.9997 58.333V54.9996H44.9997V58.333H24.9997ZM18.718 69.9996C17.1836 69.9996 15.9025 69.4857 14.8747 68.458C13.8469 67.4302 13.333 66.1491 13.333 64.6146V22.0513C13.333 20.5169 13.8469 19.2357 14.8747 18.208C15.9025 17.1802 17.1836 16.6663 18.718 16.6663H24.6147V9.23047H28.2047V16.6663H52.0513V9.23047H55.3847V16.6663H61.2813C62.8158 16.6663 64.0969 17.1802 65.1247 18.208C66.1524 19.2357 66.6663 20.5169 66.6663 22.0513V64.6146C66.6663 66.1491 66.1524 67.4302 65.1247 68.458C64.0969 69.4857 62.8158 69.9996 61.2813 69.9996H18.718ZM18.718 66.6663H61.2813C61.7947 66.6663 62.2649 66.4527 62.6922 66.0255C63.1194 65.5982 63.333 65.128 63.333 64.6146V35.3846H16.6663V64.6146C16.6663 65.128 16.88 65.5982 17.3072 66.0255C17.7344 66.4527 18.2047 66.6663 18.718 66.6663Z" fill="#777777"/>
</svg>
