<svg width="24" height="24" viewBox="0 0 24 24" fill="none" xmlns="http://www.w3.org/2000/svg">
<path d="M9.17055 10.5565C8.87364 10.0234 8.40773 9.60381 7.84596 9.36353C7.28419 9.12326 6.65836 9.07592 6.06671 9.22894C5.47505 9.38197 4.95107 9.72669 4.57702 10.209C4.20296 10.6913 4 11.2839 4 11.8938C4 12.5036 4.20296 13.0962 4.57702 13.5785C4.95107 14.0609 5.47505 14.4056 6.06671 14.5586C6.65836 14.7116 7.28419 14.6643 7.84596 14.424C8.40773 14.1837 8.87364 13.7641 9.17055 13.2311C9.39127 12.8359 9.51757 12.3795 9.51757 11.8938C9.51757 11.408 9.39127 10.9529 9.17055 10.5565ZM9.17055 13.2311L15.9804 17.0476M9.17055 10.5565L15.974 6.91187M15.974 6.91187C16.1403 7.22449 16.3675 7.50088 16.6421 7.72489C16.9168 7.94889 17.2335 8.11601 17.5736 8.21647C17.9138 8.31694 18.2706 8.34873 18.6232 8.30999C18.9758 8.27126 19.3171 8.16277 19.6272 7.99087C19.9373 7.81897 20.21 7.58711 20.4292 7.30885C20.6485 7.03059 20.8099 6.71151 20.9041 6.37026C20.9984 6.02901 21.0235 5.67244 20.978 5.32141C20.9324 4.97037 20.8173 4.63191 20.6391 4.32581C20.2881 3.7226 19.7139 3.2809 19.04 3.09564C18.366 2.91039 17.6461 2.99638 17.035 3.33512C16.4239 3.67387 15.9704 4.23833 15.772 4.90716C15.5736 5.576 15.6461 6.29581 15.974 6.91187ZM15.9804 17.0476C15.8104 17.353 15.7023 17.6889 15.6623 18.036C15.6224 18.383 15.6513 18.7346 15.7475 19.0705C15.8437 19.4064 16.0053 19.7202 16.223 19.9938C16.4407 20.2674 16.7103 20.4956 17.0164 20.6652C17.3225 20.8349 17.659 20.9427 18.0069 20.9826C18.3548 21.0225 18.7071 20.9936 19.0437 20.8976C19.3804 20.8016 19.6948 20.6404 19.9691 20.4232C20.2433 20.206 20.472 19.937 20.642 19.6315C20.9854 19.0147 21.0692 18.2871 20.8749 17.6087C20.6806 16.9302 20.2242 16.3566 19.606 16.0139C18.9879 15.6713 18.2586 15.5877 17.5787 15.7815C16.8987 15.9754 16.3238 16.4308 15.9804 17.0476Z" stroke="#D0D5DD" stroke-width="1.5" stroke-linecap="round" stroke-linejoin="round"/>
</svg>
