<svg width="80" height="80" viewBox="0 0 80 80" fill="none" xmlns="http://www.w3.org/2000/svg">
<path d="M21.6663 49.916V46.5827H13.333V39.916H29.9997V33.2493H16.6663C15.7219 33.2493 14.9302 32.9299 14.2913 32.291C13.6525 31.6521 13.333 30.8605 13.333 29.916V16.5827C13.333 15.6382 13.6525 14.8466 14.2913 14.2077C14.9302 13.5688 15.7219 13.2493 16.6663 13.2493H21.6663V9.91602H28.333V13.2493H36.6663V19.916H19.9997V26.5827H33.333C34.2775 26.5827 35.0691 26.9021 35.708 27.541C36.3469 28.1799 36.6663 28.9716 36.6663 29.916V43.2493C36.6663 44.1938 36.3469 44.9855 35.708 45.6244C35.0691 46.2632 34.2775 46.5827 33.333 46.5827H28.333V49.916H21.6663ZM46.4997 69.916L32.333 55.7494L36.9997 51.0827L46.4997 60.5827L65.333 41.7493L69.9997 46.416L46.4997 69.916Z" fill="#777777"/>
</svg>
