<svg width="80" height="80" viewBox="0 0 80 80" fill="none" xmlns="http://www.w3.org/2000/svg">
<path d="M28 70C22.9444 70 18.6806 68.2639 15.2083 64.7917C11.7361 61.3194 10 57.0556 10 52C10 49.8889 10.3611 47.8333 11.0833 45.8333C11.8056 43.8333 12.8333 42.0278 14.1667 40.4167L26 26.1667L17.9167 10H62.0833L54 26.1667L65.8333 40.4167C67.1667 42.0278 68.1944 43.8333 68.9167 45.8333C69.6389 47.8333 70 49.8889 70 52C70 57.0556 68.25 61.3194 64.75 64.7917C61.25 68.2639 57 70 52 70H28ZM40 53.3333C38.1667 53.3333 36.5972 52.6806 35.2917 51.375C33.9861 50.0694 33.3333 48.5 33.3333 46.6667C33.3333 44.8333 33.9861 43.2639 35.2917 41.9583C36.5972 40.6528 38.1667 40 40 40C41.8333 40 43.4028 40.6528 44.7083 41.9583C46.0139 43.2639 46.6667 44.8333 46.6667 46.6667C46.6667 48.5 46.0139 50.0694 44.7083 51.375C43.4028 52.6806 41.8333 53.3333 40 53.3333ZM32.0833 23.3333H47.9167L51.25 16.6667H28.75L32.0833 23.3333ZM28 63.3333H52C55.1667 63.3333 57.8472 62.2361 60.0417 60.0417C62.2361 57.8472 63.3333 55.1667 63.3333 52C63.3333 50.6667 63.0972 49.375 62.625 48.125C62.1528 46.875 61.5 45.75 60.6667 44.75L48.4167 30H31.6667L19.3333 44.6667C18.5 45.6667 17.8472 46.8056 17.375 48.0833C16.9028 49.3611 16.6667 50.6667 16.6667 52C16.6667 55.1667 17.7639 57.8472 19.9583 60.0417C22.1528 62.2361 24.8333 63.3333 28 63.3333Z" fill="#777777"/>
</svg>
