<svg width="40" height="40" viewBox="0 0 40 40" fill="none" xmlns="http://www.w3.org/2000/svg">
<path d="M9.41634 29.084C11.0552 27.9082 12.7404 26.9984 14.4718 26.3548C16.2034 25.7112 18.0461 25.3894 19.9997 25.3894C21.9533 25.3894 23.8005 25.7112 25.5413 26.3548C27.2822 26.9984 28.972 27.9082 30.6109 29.084C31.7498 27.7043 32.5808 26.2644 33.1038 24.7644C33.6269 23.2644 33.8884 21.6765 33.8884 20.0007C33.8884 16.084 32.5529 12.79 29.8818 10.1186C27.2104 7.44746 23.9163 6.1119 19.9997 6.1119C16.083 6.1119 12.789 7.44746 10.1176 10.1186C7.44648 12.79 6.11092 16.084 6.11092 20.0007C6.11092 21.6765 6.37704 23.2644 6.90926 24.7644C7.44176 26.2644 8.27745 27.7043 9.41634 29.084ZM15.9093 19.7298C14.8029 18.6234 14.2497 17.26 14.2497 15.6394C14.2497 14.0191 14.8029 12.6558 15.9093 11.5494C17.0159 10.4427 18.3794 9.8894 19.9997 9.8894C21.62 9.8894 22.9834 10.4427 24.0901 11.5494C25.1965 12.6558 25.7497 14.0191 25.7497 15.6394C25.7497 17.26 25.1965 18.6234 24.0901 19.7298C22.9834 20.8362 21.62 21.3894 19.9997 21.3894C18.3794 21.3894 17.0159 20.8362 15.9093 19.7298ZM19.9997 36.6673C17.7127 36.6673 15.5554 36.2298 13.5276 35.3548C11.4998 34.4798 9.7312 33.2877 8.22176 31.7786C6.71259 30.2691 5.52051 28.5005 4.64551 26.4727C3.77051 24.445 3.33301 22.2876 3.33301 20.0007C3.33301 17.6951 3.77051 15.533 4.64551 13.5144C5.52051 11.4961 6.71259 9.73218 8.22176 8.22274C9.7312 6.71357 11.4998 5.52148 13.5276 4.64648C15.5554 3.77148 17.7127 3.33398 19.9997 3.33398C22.3052 3.33398 24.4673 3.77148 26.4859 4.64648C28.5043 5.52148 30.2681 6.71357 31.7776 8.22274C33.2868 9.73218 34.4788 11.4961 35.3538 13.5144C36.2288 15.533 36.6663 17.6951 36.6663 20.0007C36.6663 22.2876 36.2288 24.445 35.3538 26.4727C34.4788 28.5005 33.2868 30.2691 31.7776 31.7786C30.2681 33.2877 28.5043 34.4798 26.4859 35.3548C24.4673 36.2298 22.3052 36.6673 19.9997 36.6673ZM24.3747 33.2298C25.7822 32.7901 27.1387 32.0655 28.4443 31.0561C27.1387 30.1211 25.7776 29.4058 24.3609 28.9102C22.9443 28.415 21.4905 28.1673 19.9997 28.1673C18.5088 28.1673 17.0551 28.415 15.6384 28.9102C14.2218 29.4058 12.8606 30.1211 11.5551 31.0561C12.8606 32.0655 14.2172 32.7901 15.6247 33.2298C17.0322 33.6695 18.4905 33.8894 19.9997 33.8894C21.5088 33.8894 22.9672 33.6695 24.3747 33.2298ZM22.1384 17.7786C22.694 17.223 22.9718 16.51 22.9718 15.6394C22.9718 14.7691 22.694 14.0562 22.1384 13.5007C21.5829 12.9451 20.87 12.6673 19.9997 12.6673C19.1294 12.6673 18.4165 12.9451 17.8609 13.5007C17.3054 14.0562 17.0276 14.7691 17.0276 15.6394C17.0276 16.51 17.3054 17.223 17.8609 17.7786C18.4165 18.3341 19.1294 18.6119 19.9997 18.6119C20.87 18.6119 21.5829 18.3341 22.1384 17.7786Z" fill="#246BE0"/>
</svg>
