<svg width="24" height="24" viewBox="0 0 24 24" fill="none" xmlns="http://www.w3.org/2000/svg">
<path fill-rule="evenodd" clip-rule="evenodd" d="M11.4702 2.46934C11.6108 2.32889 11.8014 2.25 12.0002 2.25C12.1989 2.25 12.3895 2.32889 12.5302 2.46934L20.0302 9.96934C20.1038 10.038 20.1629 10.1208 20.2039 10.2128C20.2449 10.3048 20.267 10.4041 20.2687 10.5048C20.2705 10.6055 20.252 10.7055 20.2143 10.7989C20.1766 10.8923 20.1204 10.9772 20.0492 11.0484C19.978 11.1196 19.8931 11.1757 19.7998 11.2135C19.7064 11.2512 19.6063 11.2697 19.5056 11.2679C19.4049 11.2662 19.3056 11.2441 19.2136 11.2031C19.1216 11.1621 19.0388 11.103 18.9702 11.0293L12.7502 4.80934V20.9993C12.7502 21.1983 12.6711 21.389 12.5305 21.5297C12.3898 21.6703 12.1991 21.7493 12.0002 21.7493C11.8012 21.7493 11.6105 21.6703 11.4698 21.5297C11.3292 21.389 11.2502 21.1983 11.2502 20.9993V4.80934L5.03015 11.0293C4.96149 11.103 4.87869 11.1621 4.78669 11.2031C4.69469 11.2441 4.59538 11.2662 4.49468 11.2679C4.39397 11.2697 4.29394 11.2512 4.20056 11.2135C4.10717 11.1757 4.02233 11.1196 3.95112 11.0484C3.8799 10.9772 3.82375 10.8923 3.78603 10.7989C3.74831 10.7055 3.72979 10.6055 3.73156 10.5048C3.73334 10.4041 3.75538 10.3048 3.79637 10.2128C3.83736 10.1208 3.89647 10.038 3.97015 9.96934L11.4702 2.46934Z" fill="black"/>
</svg>
