<svg width="30" height="30" viewBox="0 0 30 30" fill="none" xmlns="http://www.w3.org/2000/svg">
<g clip-path="url(#clip0_645_147)">
<path d="M30 15C30 6.71573 23.2843 0 15 0C6.71573 0 0 6.71573 0 15C0 23.2843 6.71573 30 15 30C23.2843 30 30 23.2843 30 15Z" fill="#1D1D1D"/>
<path d="M7.5 21H22.5V22.5H7.5V21ZM9 15H10.5V20.25H9V15ZM12.75 15H14.25V20.25H12.75V15ZM15.75 15H17.25V20.25H15.75V15ZM19.5 15H21V20.25H19.5V15ZM7.5 11.25L15 7.5L22.5 11.25V14.25H7.5V11.25ZM9 12.1771V12.75H21V12.1771L15 9.17705L9 12.1771ZM15 12C14.5858 12 14.25 11.6642 14.25 11.25C14.25 10.8358 14.5858 10.5 15 10.5C15.4142 10.5 15.75 10.8358 15.75 11.25C15.75 11.6642 15.4142 12 15 12Z" fill="white"/>
</g>
<defs>
<clipPath id="clip0_645_147">
<rect width="30" height="30" fill="white"/>
</clipPath>
</defs>
</svg>
